  <svg width="199.99999999999997" height="47.99999999999999" xmlns="http://www.w3.org/2000/svg">

 <g>
  <title>background</title>
  <rect fill="none" id="canvas_background" height="50" width="202" y="-1" x="-1"/>
 </g>
 <g>
  <title>Layer 1</title>
  <g id="svg_4">
   <path id="svg_1" fill="white" d="m3.206749,12.184775c0,-0.465 0,-0.807 0,-1.15c0,-0.258 -0.0967,-0.339 -0.358,-0.363c-0.444,-0.04 -0.8821,-0.125 -1.3067,-0.254c-1.2638,-0.424 -1.7901,-1.431 -1.4321,-2.659c0.2555,-0.891 0.819,-1.674 1.6003,-2.225c0.6074,-0.444 1.2488,-0.844 1.9189,-1.197c1.3196,-0.667 2.5353,-1.503 3.6123,-2.486c1.8903,-1.774 4.1672,-2.194 6.6948,-1.594c0.8596,0.205 1.6456,0.624 2.2769,1.214c1.4414,1.294 3.0641,2.394 4.8224,3.269c0.8207,0.408 1.5369,0.981 2.0979,1.679c0.4179,0.517 0.6857,1.129 0.7769,1.774c0.1074,0.841 -0.179,1.56 -0.9666,1.954c-0.5673,0.252 -1.1703,0.424 -1.7901,0.512c-0.3329,0.061 -0.4511,0.145 -0.426,0.464c0.025,0.319 0,0.736 0,1.133c-0.4654,-0.051 -0.8592,-0.061 -1.1779,-0.444c-0.4629,-0.533 -1.0879,-0.918 -1.79,-1.103c-3.4758,-1.019 -7.1833,-1.099 -10.7044,-0.23c-1.0431,0.199 -2.0074,0.669 -2.7853,1.356c-0.2041,0.218 -0.6409,0.224 -1.0633,0.35zm8.739,-11.352c-0.7133,-0.034 -1.4263,0.074 -2.0921,0.319c-0.6658,0.245 -1.2694,0.621 -1.7708,1.102c-1.3161,1.188 -2.7977,2.199 -4.4035,3.005c-0.5693,0.311 -1.1084,0.668 -1.6111,1.069c-0.5457,0.422 -0.9366,0.996 -1.117,1.641c-0.2434,0.828 0.0537,1.411 0.913,1.696c0.3732,0.106 0.7572,0.176 1.1456,0.207c0.0664,-0.008 0.1305,-0.029 0.1883,-0.061c0.0579,-0.032 0.1083,-0.075 0.1482,-0.126c0.3365,-0.363 0.5836,-0.851 0.9953,-1.088c0.7629,-0.459 1.5846,-0.822 2.4452,-1.082c2.635,-0.692 5.3948,-0.848 8.0981,-0.458c1.391,0.138 2.7464,0.503 4.0061,1.078c0.6417,0.273 1.1872,0.714 1.5717,1.272c0.3329,0.533 0.3329,0.546 0.9952,0.414c0.3143,-0.057 0.6207,-0.148 0.9129,-0.271c0.2432,-0.095 0.4459,-0.264 0.5757,-0.48c0.1298,-0.217 0.1792,-0.468 0.1404,-0.714c-0.0369,-0.576 -0.291,-1.12 -0.7161,-1.533c-0.5535,-0.539 -1.1724,-1.014 -1.8437,-1.414c-1.7198,-0.883 -3.3148,-1.968 -4.7472,-3.229c-0.5024,-0.469 -1.1038,-0.831 -1.7647,-1.063c-0.661,-0.232 -1.3663,-0.329 -2.0695,-0.284l0,0zm-7.8225,10.049c2.4022,-1.505 5.0944,-1.773 7.8475,-1.773c2.7531,0 5.4596,0.281 7.8762,1.78c0.1052,-0.299 0.0974,-0.623 -0.0222,-0.917c-0.1195,-0.294 -0.3433,-0.539 -0.633,-0.694c-0.5517,-0.333 -1.1414,-0.606 -1.7578,-0.814c-2.9753,-0.872 -6.1347,-1.02 -9.1865,-0.43c-1.1611,0.167 -2.2763,0.549 -3.2829,1.122c-0.3262,0.155 -0.5871,0.41 -0.74,0.724c-0.1529,0.313 -0.1886,0.667 -0.1013,1.002l0,0z"/>
   <path id="svg_2" fill="white" d="m12.353249,4.441775l0,0.958c0.3141,-0.181 0.5936,-0.312 0.8354,-0.486c0.2418,-0.175 0.4114,-0.253 0.6061,-0.025c0.1947,0.227 0.0816,0.421 -0.1131,0.599c-0.4741,0.413 -1.0829,0.64 -1.7131,0.64c-0.6302,0 -1.239,-0.227 -1.7131,-0.64c-0.1915,-0.175 -0.314,-0.368 -0.1256,-0.599c0.1884,-0.231 0.3926,-0.147 0.6061,0c0.2136,0.146 0.5056,0.312 0.8291,0.502l0,-0.967l-0.3832,0c-0.27,0 -0.5495,0 -0.5558,-0.366c-0.0063,-0.365 0.2607,-0.387 0.5401,-0.377c0.1319,0 0.267,0 0.5182,0c-0.0766,-0.124 -0.1661,-0.239 -0.2669,-0.344c-0.1767,-0.117 -0.3107,-0.288 -0.3821,-0.488c-0.0714,-0.199 -0.0765,-0.416 -0.0146,-0.618c0.0619,-0.202 0.1876,-0.379 0.3586,-0.505c0.1709,-0.126 0.378,-0.194 0.5908,-0.194c0.2127,0 0.4199,0.068 0.5908,0.194c0.1709,0.126 0.2967,0.303 0.3586,0.505c0.0619,0.202 0.0568,0.419 -0.0146,0.618c-0.0715,0.2 -0.2054,0.371 -0.3821,0.488c-0.0793,0.073 -0.1509,0.154 -0.2135,0.241l0.0376,0.112l0.5559,0c0.2449,0 0.4051,0.109 0.4051,0.365c0,0.256 -0.157,0.369 -0.402,0.375c-0.1696,0.015 -0.3423,0.012 -0.5527,0.012zm-0.0596,-1.938c-0.1634,-0.094 -0.2638,-0.197 -0.3424,-0.184c-0.049,0.019 -0.0925,0.049 -0.1265,0.089c-0.0341,0.04 -0.0575,0.088 -0.0682,0.139c0.0185,0.049 0.0492,0.093 0.0892,0.127c0.0401,0.035 0.0883,0.058 0.1401,0.069c0.0785,0.004 0.1633,-0.121 0.3078,-0.24l0,0z"/>
   <path id="svg_3" fill="white" d="m15.895049,46.687775c-2.5667,0 -4.95,-0.385 -7.15,-1.155c-2.1634,-0.807 -3.85,-1.815 -5.06,-3.025c-0.55,-0.587 -0.7884,-1.247 -0.715,-1.98c0.11,-0.77 0.4766,-1.393 1.1,-1.87c0.7333,-0.587 1.4483,-0.825 2.145,-0.715c0.7333,0.073 1.3566,0.385 1.87,0.935c0.6233,0.697 1.6133,1.357 2.97,1.98c1.3933,0.587 2.9333,0.88 4.62,0.88c2.1266,0 3.74,-0.348 4.84,-1.045c1.1366,-0.697 1.7233,-1.595 1.76,-2.695c0.0366,-1.1 -0.495,-2.053 -1.595,-2.86c-1.0634,-0.807 -3.025,-1.467 -5.885,-1.98c-3.7034,-0.733 -6.3984,-1.833 -8.085,-3.3c-1.65,-1.467 -2.475,-3.263 -2.475,-5.39c0,-1.87 0.55,-3.41 1.65,-4.62c1.1,-1.247 2.5116,-2.163 4.235,-2.75c1.7233,-0.623 3.52,-0.935 5.39,-0.935c2.42,0 4.565,0.385 6.435,1.155c1.87,0.77 3.355,1.833 4.455,3.19c0.5133,0.587 0.7516,1.21 0.715,1.87c-0.0367,0.623 -0.3484,1.155 -0.935,1.595c-0.5867,0.403 -1.2834,0.532 -2.09,0.385c-0.8067,-0.147 -1.485,-0.477 -2.035,-0.99c-0.9167,-0.88 -1.9067,-1.485 -2.97,-1.815c-1.0634,-0.33 -2.2917,-0.495 -3.685,-0.495c-1.6134,0 -2.9884,0.275 -4.125,0.825c-1.1,0.55 -1.65,1.357 -1.65,2.42c0,0.66 0.165,1.265 0.495,1.815c0.3666,0.513 1.0633,0.99 2.09,1.43c1.0266,0.403 2.53,0.807 4.51,1.21c4.1433,0.807 7.0033,1.962 8.58,3.465c1.6133,1.467 2.42,3.282 2.42,5.445c0,1.687 -0.4584,3.208 -1.375,4.565c-0.88,1.357 -2.2,2.438 -3.96,3.245c-1.7234,0.807 -3.8867,1.21 -6.49,1.21zm33.0529,0c-3.043,0 -5.7563,-0.642 -8.1397,-1.925c-2.3466,-1.32 -4.1983,-3.117 -5.555,-5.39c-1.32,-2.31 -1.98,-4.95 -1.98,-7.92c0,-3.007 0.6234,-5.647 1.87,-7.92c1.2834,-2.31 3.0434,-4.107 5.28,-5.39c2.2367,-1.32 4.8034,-1.98 7.6997,-1.98c2.86,0 5.317,0.642 7.37,1.925c2.054,1.247 3.612,2.988 4.675,5.225c1.1,2.2 1.65,4.748 1.65,7.645c0,0.697 -0.238,1.283 -0.715,1.76c-0.476,0.44 -1.081,0.66 -1.815,0.66l-20.8997,0c0.4034,2.53 1.5584,4.602 3.465,6.215c1.9434,1.577 4.3084,2.365 7.0947,2.365c1.137,0 2.292,-0.202 3.465,-0.605c1.21,-0.44 2.182,-0.935 2.915,-1.485c0.55,-0.403 1.137,-0.605 1.76,-0.605c0.66,-0.037 1.229,0.147 1.705,0.55c0.624,0.55 0.954,1.155 0.99,1.815c0.037,0.66 -0.256,1.228 -0.88,1.705c-1.246,0.99 -2.805,1.797 -4.675,2.42c-1.833,0.623 -3.593,0.935 -5.28,0.935zm-0.825,-25.795c-2.713,0 -4.8947,0.752 -6.5447,2.255c-1.65,1.503 -2.695,3.447 -3.135,5.83l18.3147,0c-0.33,-2.347 -1.228,-4.272 -2.695,-5.775c-1.466,-1.54 -3.446,-2.31 -5.94,-2.31zm32.316,25.795c-2.676,0 -5.078,-0.66 -7.205,-1.98c-2.126,-1.357 -3.813,-3.172 -5.06,-5.445c-1.21,-2.31 -1.815,-4.913 -1.815,-7.81c0,-2.897 0.66,-5.5 1.98,-7.81c1.357,-2.31 3.172,-4.125 5.445,-5.445c2.31,-1.357 4.895,-2.035 7.755,-2.035c2.86,0 5.427,0.678 7.7,2.035c2.274,1.32 4.07,3.135 5.39,5.445c1.357,2.31 2.035,4.913 2.035,7.81l0,12.265c0,0.807 -0.275,1.485 -0.825,2.035c-0.513,0.513 -1.173,0.77 -1.98,0.77c-0.806,0 -1.485,-0.257 -2.035,-0.77c-0.513,-0.55 -0.77,-1.228 -0.77,-2.035l0,-2.035c-1.283,1.54 -2.841,2.768 -4.675,3.685c-1.796,0.88 -3.776,1.32 -5.94,1.32zm1.1,-4.95c1.87,0 3.539,-0.44 5.005,-1.32c1.467,-0.917 2.622,-2.145 3.465,-3.685c0.844,-1.577 1.265,-3.337 1.265,-5.28c0,-1.98 -0.421,-3.74 -1.265,-5.28c-0.843,-1.577 -1.998,-2.805 -3.465,-3.685c-1.466,-0.917 -3.135,-1.375 -5.005,-1.375c-1.833,0 -3.501,0.458 -5.005,1.375c-1.466,0.88 -2.64,2.108 -3.52,3.685c-0.843,1.54 -1.265,3.3 -1.265,5.28c0,1.943 0.422,3.703 1.265,5.28c0.88,1.54 2.054,2.768 3.52,3.685c1.504,0.88 3.172,1.32 5.005,1.32zm26.72,4.73c-0.697,0 -1.32,-0.257 -1.87,-0.77c-0.55,-0.513 -0.825,-1.192 -0.825,-2.035l0,-21.45l-2.365,0c-0.77,0 -1.394,-0.22 -1.87,-0.66c-0.477,-0.44 -0.715,-0.99 -0.715,-1.65c0,-0.733 0.238,-1.32 0.715,-1.76c0.476,-0.44 1.1,-0.66 1.87,-0.66l2.365,0l0,-0.935c0,-2.64 0.513,-4.932 1.54,-6.875c1.063,-1.943 2.53,-3.447 4.4,-4.51c1.87,-1.1 4.033,-1.65 6.49,-1.65c0.806,0 1.466,0.238 1.98,0.715c0.55,0.477 0.825,1.082 0.825,1.815c0,0.697 -0.275,1.302 -0.825,1.815c-0.514,0.477 -1.174,0.715 -1.98,0.715c-2.054,0 -3.704,0.678 -4.95,2.035c-1.247,1.357 -1.87,3.153 -1.87,5.39l0,1.485l5.61,0c0.77,0 1.393,0.22 1.87,0.66c0.476,0.44 0.715,1.027 0.715,1.76c0,0.66 -0.239,1.21 -0.715,1.65c-0.477,0.44 -1.1,0.66 -1.87,0.66l-5.61,0l0,21.45c0,0.843 -0.257,1.522 -0.77,2.035c-0.514,0.513 -1.229,0.77 -2.145,0.77zm28.416,0.22c-2.677,0 -5.079,-0.66 -7.205,-1.98c-2.127,-1.357 -3.814,-3.172 -5.06,-5.445c-1.21,-2.31 -1.815,-4.913 -1.815,-7.81c0,-2.897 0.66,-5.5 1.98,-7.81c1.356,-2.31 3.171,-4.125 5.445,-5.445c2.31,-1.357 4.895,-2.035 7.755,-2.035c2.86,0 5.426,0.678 7.7,2.035c2.273,1.32 4.07,3.135 5.39,5.445c1.356,2.31 2.035,4.913 2.035,7.81l0,12.265c0,0.807 -0.275,1.485 -0.825,2.035c-0.514,0.513 -1.174,0.77 -1.98,0.77c-0.807,0 -1.485,-0.257 -2.035,-0.77c-0.514,-0.55 -0.77,-1.228 -0.77,-2.035l0,-2.035c-1.284,1.54 -2.842,2.768 -4.675,3.685c-1.797,0.88 -3.777,1.32 -5.94,1.32zm1.1,-4.95c1.87,0 3.538,-0.44 5.005,-1.32c1.466,-0.917 2.621,-2.145 3.465,-3.685c0.843,-1.577 1.265,-3.337 1.265,-5.28c0,-1.98 -0.422,-3.74 -1.265,-5.28c-0.844,-1.577 -1.999,-2.805 -3.465,-3.685c-1.467,-0.917 -3.135,-1.375 -5.005,-1.375c-1.834,0 -3.502,0.458 -5.005,1.375c-1.467,0.88 -2.64,2.108 -3.52,3.685c-0.844,1.54 -1.265,3.3 -1.265,5.28c0,1.943 0.421,3.703 1.265,5.28c0.88,1.54 2.053,2.768 3.52,3.685c1.503,0.88 3.171,1.32 5.005,1.32zm26.829,4.73c-0.807,0 -1.485,-0.257 -2.035,-0.77c-0.513,-0.55 -0.77,-1.228 -0.77,-2.035l0,-24.475c0,-0.843 0.257,-1.522 0.77,-2.035c0.55,-0.513 1.228,-0.77 2.035,-0.77c0.843,0 1.522,0.257 2.035,0.77c0.513,0.513 0.77,1.192 0.77,2.035l0,24.475c0,0.807 -0.257,1.485 -0.77,2.035c-0.513,0.513 -1.192,0.77 -2.035,0.77zm0,-34.98c-0.99,0 -1.852,-0.348 -2.585,-1.045c-0.697,-0.733 -1.045,-1.595 -1.045,-2.585c0,-0.99 0.348,-1.833 1.045,-2.53c0.733,-0.733 1.595,-1.1 2.585,-1.1c0.99,0 1.833,0.367 2.53,1.1c0.733,0.697 1.1,1.54 1.1,2.53c0,0.99 -0.367,1.852 -1.1,2.585c-0.697,0.697 -1.54,1.045 -2.53,1.045zm15.992,34.98c-1.834,0 -2.75,-0.917 -2.75,-2.75l0,-24.585c0,-1.833 0.916,-2.75 2.75,-2.75c1.833,0 2.75,0.917 2.75,2.75l0,1.045c1.1,-1.283 2.438,-2.292 4.015,-3.025c1.613,-0.733 3.355,-1.1 5.225,-1.1c2.2,0 3.831,0.367 4.895,1.1c1.1,0.697 1.521,1.54 1.265,2.53c-0.184,0.77 -0.55,1.283 -1.1,1.54c-0.55,0.22 -1.192,0.257 -1.925,0.11c-2.347,-0.477 -4.455,-0.513 -6.325,-0.11c-1.87,0.403 -3.355,1.155 -4.455,2.255c-1.064,1.1 -1.595,2.493 -1.595,4.18l0,16.06c0,1.833 -0.917,2.75 -2.75,2.75z"/>
  </g>
 </g>
</svg>
